<svg xmlns="http://www.w3.org/2000/svg" viewBox="0 0 32 32" fill="none">
  <rect width="32" height="32" rx="8" fill="#161412"/>
  <path d="M8 22V10h5.2c2.4 0 3.9 1.3 3.9 3.3 0 1.3-.7 2.4-1.9 2.9 1.5.5 2.4 1.7 2.4 3.3 0 2.2-1.7 3.5-4.3 3.5H8zm2.4-6.8h2.5c1.2 0 1.9-.6 1.9-1.5s-.7-1.5-1.9-1.5h-2.5v3zm0 4.9h2.9c1.4 0 2.2-.7 2.2-1.7s-.8-1.7-2.2-1.7h-2.9v3.4z" fill="#c4784a"/>
  <circle cx="23" cy="11" r="2.5" fill="#5b9a8b"/>
  <path d="M23 15v7" stroke="#5b9a8b" stroke-width="1.5" stroke-linecap="round"/>
</svg>
