<svg xmlns="http://www.w3.org/2000/svg" viewBox="0 0 64 64">
  <rect width="64" height="64" rx="14" fill="#F2EAD9"/>
  <path transform="translate(15.98,43.00) scale(0.02591,-0.02591)" fill="#7A2831" d="M457 1249V763Q577 946 747 946Q838 946 906.5 906.0Q975 866 1012.0 792.5Q1049 719 1049 620V205H1126Q1150 205 1163.0 196.5Q1176 188 1182.5 166.0Q1189 144 1189 102Q1189 60 1182.5 38.0Q1176 16 1163.0 8.0Q1150 0 1126 0H752Q728 0 715.0 8.0Q702 16 695.5 38.0Q689 60 689 102Q689 144 695.5 166.0Q702 188 715.0 196.5Q728 205 752 205H799V561Q799 639 772.0 679.0Q745 719 682 719Q624 719 572.0 670.5Q520 622 488.5 541.0Q457 460 457 368V205H504Q528 205 541.0 196.5Q554 188 560.5 166.0Q567 144 567 102Q567 60 560.5 38.0Q554 16 541.0 8.0Q528 0 504 0H130Q106 0 93.0 8.0Q80 16 73.5 38.0Q67 60 67 102Q67 144 73.5 166.0Q80 188 93.0 196.5Q106 205 130 205H207V1107H110Q86 1107 73.0 1115.0Q60 1123 53.5 1145.0Q47 1167 47 1209Q47 1251 53.5 1273.0Q60 1295 73.0 1303.5Q86 1312 110 1312H394Q428 1312 442.5 1297.5Q457 1283 457 1249Z"/>
  <line x1="12" y1="50" x2="52" y2="50" stroke="#262019" stroke-width="3.4" stroke-linecap="round"/>
</svg>