<svg xmlns="http://www.w3.org/2000/svg" viewBox="0 0 9247 1866" role="img" aria-label="Fabulhet">
<path transform="translate(42,1742) scale(1,-1)" fill="#262019" d="M1120 1122V820Q1120 786 1091.0 771.5Q1062 757 998 757Q936 757 913.0 771.0Q890 785 890 820V972H500V667H804Q839 667 853.0 644.0Q867 621 867 559Q867 497 853.0 474.5Q839 452 804 452H500V205H717Q741 205 754.0 196.5Q767 188 773.5 166.0Q780 144 780 102Q780 60 773.5 38.0Q767 16 754.0 8.0Q741 0 717 0H123Q99 0 86.0 8.0Q73 16 66.5 38.0Q60 60 60 102Q60 144 66.5 166.0Q73 188 86.0 196.5Q99 205 123 205H250V982H123Q99 982 86.0 990.0Q73 998 66.5 1020.0Q60 1042 60 1084Q60 1126 66.5 1148.0Q73 1170 86.0 1178.5Q99 1187 123 1187H1055Q1090 1187 1105.0 1172.0Q1120 1157 1120 1122Z"/>
<path transform="translate(1184,1742) scale(1,-1)" fill="#262019" d="M1019 579V290Q1019 250 1036.0 227.5Q1053 205 1085 205H1116Q1140 205 1153.0 196.5Q1166 188 1172.5 166.0Q1179 144 1179 102Q1179 60 1172.5 38.0Q1166 16 1153.0 8.0Q1140 0 1116 0H1004Q942 0 894.5 25.5Q847 51 822 106Q743 45 655.0 11.5Q567 -22 474 -22Q361 -22 279.0 16.5Q197 55 153.5 126.5Q110 198 110 295Q110 435 209.0 512.0Q308 589 486 589Q619 589 769 559V588Q769 655 727.0 687.0Q685 719 579 719Q520 719 447.5 704.5Q375 690 304 666Q287 661 275 661Q250 661 230.5 679.5Q211 698 195 742Q180 786 180 814Q180 865 226 882Q315 914 415.0 930.0Q515 946 603 946Q823 946 921.0 851.0Q1019 756 1019 579ZM368 285Q368 238 403.5 213.5Q439 189 506 189Q575 189 642.5 216.5Q710 244 769 292V356Q637 383 511 383Q441 383 404.5 358.0Q368 333 368 285Z"/>
<path transform="translate(2326,1742) scale(1,-1)" fill="#262019" d="M437 1249V828Q488 885 555.0 915.5Q622 946 700 946Q831 946 929.0 882.0Q1027 818 1079.0 708.0Q1131 598 1131 462Q1131 326 1079.0 216.0Q1027 106 929.0 42.0Q831 -22 700 -22Q605 -22 527.0 22.5Q449 67 397 147V63Q397 29 382.5 14.5Q368 0 334 0H110Q86 0 73.0 8.5Q60 17 53.5 39.0Q47 61 47 103Q47 145 53.5 167.0Q60 189 73.0 197.0Q86 205 110 205H187V1107H90Q66 1107 53.0 1115.0Q40 1123 33.5 1145.0Q27 1167 27 1209Q27 1251 33.5 1273.0Q40 1295 53.0 1303.5Q66 1312 90 1312H374Q408 1312 422.5 1297.5Q437 1283 437 1249ZM430 462Q430 382 461.0 323.5Q492 265 544.0 235.0Q596 205 660 205Q722 205 768.0 236.5Q814 268 838.5 326.0Q863 384 863 462Q863 540 838.5 598.0Q814 656 768.0 687.5Q722 719 660 719Q596 719 544.0 689.0Q492 659 461.0 600.5Q430 542 430 462Z"/>
<path transform="translate(3468,1742) scale(1,-1)" fill="#262019" d="M1032 861V205H1109Q1133 205 1146.0 197.0Q1159 189 1165.5 167.0Q1172 145 1172 103Q1172 61 1165.5 39.0Q1159 17 1146.0 8.5Q1133 0 1109 0H885Q851 0 836.5 14.5Q822 29 822 63V208Q690 -22 492 -22Q401 -22 332.5 18.0Q264 58 227.0 131.5Q190 205 190 304V719H113Q89 719 76.0 727.5Q63 736 56.5 758.0Q50 780 50 822Q50 864 56.5 886.0Q63 908 76.0 916.0Q89 924 113 924H377Q411 924 425.5 909.5Q440 895 440 861V363Q440 285 467.0 245.0Q494 205 557 205Q615 205 667.0 253.5Q719 302 750.5 383.0Q782 464 782 556V719H675Q651 719 638.0 727.5Q625 736 618.5 758.0Q612 780 612 822Q612 864 618.5 886.0Q625 908 638.0 916.0Q651 924 675 924H969Q1003 924 1017.5 909.5Q1032 895 1032 861Z"/>
<path transform="translate(4610,1742) scale(1,-1)" fill="#262019" d="M743 1249V205H1024Q1048 205 1061.0 196.5Q1074 188 1080.5 166.0Q1087 144 1087 102Q1087 60 1080.5 38.0Q1074 16 1061.0 8.0Q1048 0 1024 0H220Q196 0 183.0 8.0Q170 16 163.5 38.0Q157 60 157 102Q157 144 163.5 166.0Q170 188 183.0 196.5Q196 205 220 205H493V1107H260Q236 1107 223.0 1115.0Q210 1123 203.5 1145.0Q197 1167 197 1209Q197 1251 203.5 1273.0Q210 1295 223.0 1303.5Q236 1312 260 1312H680Q714 1312 728.5 1297.5Q743 1283 743 1249Z"/>
<path transform="translate(5752,1414) scale(1,-1)" fill="#7A2831" d="M457 1249V763Q577 946 747 946Q838 946 906.5 906.0Q975 866 1012.0 792.5Q1049 719 1049 620V205H1126Q1150 205 1163.0 196.5Q1176 188 1182.5 166.0Q1189 144 1189 102Q1189 60 1182.5 38.0Q1176 16 1163.0 8.0Q1150 0 1126 0H752Q728 0 715.0 8.0Q702 16 695.5 38.0Q689 60 689 102Q689 144 695.5 166.0Q702 188 715.0 196.5Q728 205 752 205H799V561Q799 639 772.0 679.0Q745 719 682 719Q624 719 572.0 670.5Q520 622 488.5 541.0Q457 460 457 368V205H504Q528 205 541.0 196.5Q554 188 560.5 166.0Q567 144 567 102Q567 60 560.5 38.0Q554 16 541.0 8.0Q528 0 504 0H130Q106 0 93.0 8.0Q80 16 73.5 38.0Q67 60 67 102Q67 144 73.5 166.0Q80 188 93.0 196.5Q106 205 130 205H207V1107H110Q86 1107 73.0 1115.0Q60 1123 53.5 1145.0Q47 1167 47 1209Q47 1251 53.5 1273.0Q60 1295 73.0 1303.5Q86 1312 110 1312H394Q428 1312 442.5 1297.5Q457 1283 457 1249Z"/>
<path transform="translate(6894,1742) scale(1,-1)" fill="#262019" d="M1103 432Q1103 398 1088.5 384.0Q1074 370 1040 370H398Q417 290 479.5 247.5Q542 205 638 205Q793 205 974 260Q986 264 998 264Q1020 264 1036.0 244.0Q1052 224 1065 176Q1075 139 1075 113Q1075 87 1063.5 72.5Q1052 58 1026 49Q926 16 822.0 -3.0Q718 -22 618 -22Q466 -22 356.0 40.0Q246 102 188.5 211.5Q131 321 131 462Q131 602 191.0 712.0Q251 822 364.0 884.0Q477 946 628 946Q780 946 887.0 880.5Q994 815 1048.5 698.5Q1103 582 1103 432ZM402 565H842Q825 638 769.5 678.5Q714 719 628 719Q445 719 402 565Z"/>
<path transform="translate(8036,1742) scale(1,-1)" fill="#262019" d="M603 1146V864H974Q1009 864 1023.0 841.0Q1037 818 1037 756Q1037 694 1023.0 671.5Q1009 649 974 649H603V371Q603 205 732 205Q778 205 839.5 225.5Q901 246 983 283Q1005 292 1018 292Q1039 292 1057.0 274.5Q1075 257 1091 217Q1109 172 1109 144Q1109 122 1098.5 107.5Q1088 93 1067 82Q861 -22 710 -22Q536 -22 444.5 75.0Q353 172 353 358V649H160Q125 649 111.0 671.5Q97 694 97 756Q97 818 111.0 841.0Q125 864 160 864H353V1146Q353 1180 383.5 1194.5Q414 1209 485 1209Q532 1209 557.5 1202.5Q583 1196 593.0 1183.0Q603 1170 603 1146Z"/>
</svg>